<mxfile host="app.diagrams.net" agent="Mozilla/5.0 (Macintosh; Intel Mac OS X 10_15_7) AppleWebKit/537.36 (KHTML, like Gecko) Chrome/122.0.0.0 Safari/537.36 Edg/122.0.0.0" version="24.8.4">
  <diagram name="Page-1" id="9iar81T7In1y4wc-28x8">
    <mxGraphModel dx="1334" dy="624" grid="0" gridSize="10" guides="1" tooltips="1" connect="1" arrows="1" fold="1" page="0" pageScale="1" pageWidth="850" pageHeight="1100" math="0" shadow="0">
      <root>
        <mxCell id="0" />
        <mxCell id="1" parent="0" />
        <mxCell id="uF3kilX3BNJk21WQmL2F-4" value="" style="rounded=1;whiteSpace=wrap;html=1;labelBackgroundColor=none;" vertex="1" parent="1">
          <mxGeometry x="94.84" y="335" width="176" height="85" as="geometry" />
        </mxCell>
        <mxCell id="uF3kilX3BNJk21WQmL2F-19" value="" style="rounded=1;whiteSpace=wrap;html=1;" vertex="1" parent="1">
          <mxGeometry x="-104" y="473" width="120" height="60" as="geometry" />
        </mxCell>
        <mxCell id="uF3kilX3BNJk21WQmL2F-20" value="" style="strokeWidth=2;html=1;shape=mxgraph.flowchart.annotation_2;align=left;labelPosition=right;pointerEvents=1;rotation=90;" vertex="1" parent="1">
          <mxGeometry x="157.84" y="219.15" width="50" height="455.68" as="geometry" />
        </mxCell>
        <mxCell id="uF3kilX3BNJk21WQmL2F-30" value="" style="rounded=1;whiteSpace=wrap;html=1;" vertex="1" parent="1">
          <mxGeometry x="-104" y="558" width="120" height="60" as="geometry" />
        </mxCell>
        <mxCell id="uF3kilX3BNJk21WQmL2F-32" value="" style="rounded=1;whiteSpace=wrap;html=1;" vertex="1" parent="1">
          <mxGeometry x="-104" y="638.6800000000001" width="120" height="60" as="geometry" />
        </mxCell>
        <mxCell id="uF3kilX3BNJk21WQmL2F-34" value="" style="rounded=1;whiteSpace=wrap;html=1;" vertex="1" parent="1">
          <mxGeometry x="-104" y="717" width="120" height="60" as="geometry" />
        </mxCell>
        <mxCell id="uF3kilX3BNJk21WQmL2F-39" value="" style="rounded=1;whiteSpace=wrap;html=1;labelBackgroundColor=none;" vertex="1" parent="1">
          <mxGeometry x="351" y="473" width="120" height="60" as="geometry" />
        </mxCell>
        <mxCell id="uF3kilX3BNJk21WQmL2F-40" value="" style="rounded=1;whiteSpace=wrap;html=1;labelBackgroundColor=none;" vertex="1" parent="1">
          <mxGeometry x="351" y="558" width="120" height="60" as="geometry" />
        </mxCell>
        <mxCell id="uF3kilX3BNJk21WQmL2F-41" value="" style="rounded=1;whiteSpace=wrap;html=1;labelBackgroundColor=none;" vertex="1" parent="1">
          <mxGeometry x="351" y="638.6800000000001" width="120" height="60" as="geometry" />
        </mxCell>
        <mxCell id="uF3kilX3BNJk21WQmL2F-42" value="" style="rounded=1;whiteSpace=wrap;html=1;labelBackgroundColor=none;" vertex="1" parent="1">
          <mxGeometry x="351" y="717" width="120" height="60" as="geometry" />
        </mxCell>
        <mxCell id="uF3kilX3BNJk21WQmL2F-43" value="" style="rounded=1;whiteSpace=wrap;html=1;" vertex="1" parent="1">
          <mxGeometry x="212" y="839" width="120" height="60" as="geometry" />
        </mxCell>
        <mxCell id="uF3kilX3BNJk21WQmL2F-44" value="" style="rounded=1;whiteSpace=wrap;html=1;" vertex="1" parent="1">
          <mxGeometry x="351" y="839" width="120" height="60" as="geometry" />
        </mxCell>
        <mxCell id="uF3kilX3BNJk21WQmL2F-45" value="" style="rounded=1;whiteSpace=wrap;html=1;" vertex="1" parent="1">
          <mxGeometry x="490" y="839" width="120" height="60" as="geometry" />
        </mxCell>
        <mxCell id="uF3kilX3BNJk21WQmL2F-46" value="" style="rounded=1;whiteSpace=wrap;html=1;" vertex="1" parent="1">
          <mxGeometry x="-246" y="839" width="120" height="60" as="geometry" />
        </mxCell>
        <mxCell id="uF3kilX3BNJk21WQmL2F-47" value="" style="rounded=1;whiteSpace=wrap;html=1;" vertex="1" parent="1">
          <mxGeometry x="-107" y="839" width="120" height="60" as="geometry" />
        </mxCell>
        <mxCell id="uF3kilX3BNJk21WQmL2F-48" value="" style="rounded=1;whiteSpace=wrap;html=1;" vertex="1" parent="1">
          <mxGeometry x="32" y="839" width="120" height="60" as="geometry" />
        </mxCell>
        <mxCell id="uF3kilX3BNJk21WQmL2F-53" value="" style="line;strokeWidth=2;direction=south;html=1;perimeter=backbonePerimeter;points=[];outlineConnect=0;" vertex="1" parent="1">
          <mxGeometry x="-49" y="533" width="10" height="25" as="geometry" />
        </mxCell>
        <mxCell id="uF3kilX3BNJk21WQmL2F-54" value="" style="line;strokeWidth=2;direction=south;html=1;perimeter=backbonePerimeter;points=[];outlineConnect=0;" vertex="1" parent="1">
          <mxGeometry x="406" y="533" width="10" height="25" as="geometry" />
        </mxCell>
        <mxCell id="uF3kilX3BNJk21WQmL2F-56" value="" style="line;strokeWidth=2;direction=south;html=1;perimeter=backbonePerimeter;points=[];outlineConnect=0;" vertex="1" parent="1">
          <mxGeometry x="406" y="618" width="10" height="20.68" as="geometry" />
        </mxCell>
        <mxCell id="uF3kilX3BNJk21WQmL2F-57" value="" style="line;strokeWidth=2;direction=south;html=1;perimeter=backbonePerimeter;points=[];outlineConnect=0;" vertex="1" parent="1">
          <mxGeometry x="-49" y="618" width="10" height="20.68" as="geometry" />
        </mxCell>
        <mxCell id="uF3kilX3BNJk21WQmL2F-58" value="" style="line;strokeWidth=2;direction=south;html=1;perimeter=backbonePerimeter;points=[];outlineConnect=0;" vertex="1" parent="1">
          <mxGeometry x="406" y="699" width="10" height="18" as="geometry" />
        </mxCell>
        <mxCell id="uF3kilX3BNJk21WQmL2F-59" value="" style="line;strokeWidth=2;direction=south;html=1;perimeter=backbonePerimeter;points=[];outlineConnect=0;" vertex="1" parent="1">
          <mxGeometry x="-49" y="699" width="10" height="18" as="geometry" />
        </mxCell>
        <mxCell id="uF3kilX3BNJk21WQmL2F-62" value="" style="strokeWidth=2;html=1;shape=mxgraph.flowchart.annotation_2;align=left;labelPosition=right;pointerEvents=1;rotation=90;" vertex="1" parent="1">
          <mxGeometry x="-76.37" y="667.63" width="62.75" height="282" as="geometry" />
        </mxCell>
        <mxCell id="uF3kilX3BNJk21WQmL2F-63" value="" style="strokeWidth=2;html=1;shape=mxgraph.flowchart.annotation_2;align=left;labelPosition=right;pointerEvents=1;rotation=90;" vertex="1" parent="1">
          <mxGeometry x="379.63" y="667.63" width="62.75" height="282" as="geometry" />
        </mxCell>
        <mxCell id="uF3kilX3BNJk21WQmL2F-65" value="" style="line;strokeWidth=2;direction=south;html=1;perimeter=backbonePerimeter;points=[];outlineConnect=0;" vertex="1" parent="1">
          <mxGeometry x="-49.99" y="808" width="10" height="31" as="geometry" />
        </mxCell>
        <mxCell id="uF3kilX3BNJk21WQmL2F-67" value="" style="line;strokeWidth=2;direction=south;html=1;perimeter=backbonePerimeter;points=[];outlineConnect=0;" vertex="1" parent="1">
          <mxGeometry x="406.01" y="808" width="10" height="31" as="geometry" />
        </mxCell>
      </root>
    </mxGraphModel>
  </diagram>
</mxfile>
